<svg xmlns="http://www.w3.org/2000/svg" width="660" height="420" viewBox="0 0 660 420">
  <defs>
    <linearGradient id="bg" x1="0" y1="0" x2="660" y2="420" gradientUnits="userSpaceOnUse">
      <stop offset="0" stop-color="#fbfcf8"/>
      <stop offset="1" stop-color="#e6ede8"/>
    </linearGradient>
    <filter id="shadow" x="-20%" y="-20%" width="140%" height="140%">
      <feDropShadow dx="0" dy="16" stdDeviation="22" flood-color="#17201b" flood-opacity="0.16"/>
    </filter>
    <clipPath id="cardClip">
      <rect x="46" y="42" width="568" height="318" rx="36"/>
    </clipPath>
  </defs>
  <rect width="660" height="420" fill="url(#bg)"/>
  <g filter="url(#shadow)">
    <rect x="46" y="42" width="568" height="318" rx="36" fill="#fff" stroke="#dfe5dd" stroke-width="2"/>
  </g>
  <g clip-path="url(#cardClip)" opacity="0.14">
    <rect x="48" y="258" width="58" height="118" rx="15" fill="#23745c"/>
    <rect x="124" y="202" width="58" height="174" rx="15" fill="#5b6ee1"/>
    <rect x="200" y="228" width="58" height="148" rx="15" fill="#d55e00"/>
    <rect x="276" y="152" width="58" height="224" rx="15" fill="#23745c"/>
    <rect x="352" y="178" width="58" height="198" rx="15" fill="#5b6ee1"/>
    <rect x="428" y="116" width="58" height="260" rx="15" fill="#23745c"/>
  </g>
  <g filter="url(#shadow)">
    <path d="M 448.2 282.35 A 150 150 0 0 1 207.13 276.04 L 257.91 240.47 A 88 88 0 0 0 399.34 244.18 Z" fill="#23745c"/>
    <path d="M 202.79 269.49 A 150 150 0 0 1 194.05 126.61 L 250.24 152.81 A 88 88 0 0 0 255.37 236.63 Z" fill="#5b6ee1"/>
    <path d="M 197.56 119.58 A 150 150 0 0 1 273.81 50.92 L 297.03 108.41 A 88 88 0 0 0 252.3 148.69 Z" fill="#d55e00"/>
    <path d="M 281.16 48.17 A 150 150 0 0 1 371.35 45.81 L 354.26 105.41 A 88 88 0 0 0 301.35 106.79 Z" fill="#4f6d2f"/>
    <path d="M 378.84 48.17 A 150 150 0 0 1 448.2 97.65 L 399.34 135.82 A 88 88 0 0 0 358.65 106.79 Z" fill="#2e6ea6"/>
  </g>
  <text x="330" y="173" fill="#17201b" text-anchor="middle" font-family="Inter, ui-sans-serif, system-ui, -apple-system, BlinkMacSystemFont, 'Segoe UI', sans-serif" font-size="54" font-weight="950" letter-spacing="0">LLM</text>
  <text x="330" y="222" fill="#17201b" text-anchor="middle" font-family="Inter, ui-sans-serif, system-ui, -apple-system, BlinkMacSystemFont, 'Segoe UI', sans-serif" font-size="42" font-weight="950" letter-spacing="0">USAGE</text>
  <text x="162" y="394" fill="#66716b" font-family="Inter, ui-sans-serif, system-ui, -apple-system, BlinkMacSystemFont, 'Segoe UI', sans-serif" font-size="13" font-weight="800" letter-spacing="0">Drag the app to Applications, then open it from your Applications folder.</text>
</svg>
