<svg xmlns="http://www.w3.org/2000/svg" width="1024" height="1024" viewBox="0 0 1024 1024">
  <defs>
    <linearGradient id="bg" x1="92" y1="54" x2="930" y2="970" gradientUnits="userSpaceOnUse">
      <stop offset="0" stop-color="#fbfcf8"/>
      <stop offset="1" stop-color="#e5ece7"/>
    </linearGradient>
    <filter id="shadow" x="-20%" y="-20%" width="140%" height="140%">
      <feDropShadow dx="0" dy="30" stdDeviation="34" flood-color="#17201b" flood-opacity="0.22"/>
    </filter>
    <clipPath id="cardClip">
      <rect x="108" y="104" width="808" height="816" rx="184"/>
    </clipPath>
  </defs>
  <rect width="1024" height="1024" rx="224" fill="url(#bg)"/>
  <g filter="url(#shadow)">
    <rect x="108" y="104" width="808" height="816" rx="184" fill="#fff" stroke="#dfe5dd" stroke-width="6"/>
  </g>
  <g clip-path="url(#cardClip)" opacity="0.18">
    <rect x="84" y="714" width="128" height="272" rx="34" fill="#23745c"/>
    <rect x="234" y="556" width="128" height="430" rx="34" fill="#5b6ee1"/>
    <rect x="384" y="632" width="128" height="354" rx="34" fill="#d55e00"/>
    <rect x="534" y="420" width="128" height="566" rx="34" fill="#23745c"/>
    <rect x="684" y="492" width="128" height="494" rx="34" fill="#5b6ee1"/>
    <rect x="834" y="320" width="128" height="666" rx="34" fill="#23745c"/>
  </g>
  <g filter="url(#shadow)">
    <path d="M 792.53 715.18 A 356 356 0 0 1 220.38 700.19 L 333.42 621.04 A 218 218 0 0 0 683.79 630.21 Z" fill="#23745c"/>
    <path d="M 210.09 684.65 A 356 356 0 0 1 189.35 345.55 L 314.42 403.87 A 218 218 0 0 0 327.13 611.52 Z" fill="#5b6ee1"/>
    <path d="M 197.67 328.87 A 356 356 0 0 1 378.64 165.92 L 430.34 293.87 A 218 218 0 0 0 319.52 393.66 Z" fill="#d55e00"/>
    <path d="M 396.1 159.4 A 356 356 0 0 1 610.13 153.79 L 572.09 286.44 A 218 218 0 0 0 441.03 289.88 Z" fill="#4f6d2f"/>
    <path d="M 627.9 159.4 A 356 356 0 0 1 792.53 276.82 L 683.79 361.79 A 218 218 0 0 0 582.97 289.88 Z" fill="#2e6ea6"/>
  </g>
  <g>
    <text x="510" y="456" fill="#17201b" text-anchor="middle" font-family="Inter, ui-sans-serif, system-ui, -apple-system, BlinkMacSystemFont, 'Segoe UI', sans-serif" font-size="122" font-weight="950" letter-spacing="0">LLM</text>
    <text x="510" y="566" fill="#17201b" text-anchor="middle" font-family="Inter, ui-sans-serif, system-ui, -apple-system, BlinkMacSystemFont, 'Segoe UI', sans-serif" font-size="96" font-weight="950" letter-spacing="0">USAGE</text>
  </g>
</svg>
